<svg xmlns="http://www.w3.org/2000/svg" viewBox="0 0 154.4 33.2" xml:space="preserve">
                <title>Loja Meu Positivo</title>
                <path class="st0" d="M44.132 8.487h6.5c6.7 0 8.2.9 8.2 5.8 0 4.4-1.6 5.4-7.8 5.4h-1.6v5h-5.3v-16.2zm7 7.9c2.3 0 2.4-.2 2.4-2.1 0-2.3-.1-2.3-2.4-2.3h-1.7v4.4h1.7zM60.332 16.587c0-6.5 1.2-8.3 7.5-8.3 6.4 0 7.5 1.9 7.5 8.3s-1.2 8.3-7.5 8.3-7.5-1.8-7.5-8.3zm9.9 0c0-4.3-.1-4.6-2.3-4.6s-2.4.3-2.4 4.6.1 4.6 2.3 4.6 2.4-.2 2.4-4.6zM77.232 20.987s2 .1 4.5.1c2.9 0 3.7-.2 3.7-1.1 0-.6-.2-.9-1.2-1.1l-3.3-.8c-3.3-.9-4.1-1.8-4.1-4.7 0-3.5 2.1-5.1 7.4-5.1 2.5 0 5 .3 5 .3l-.1 3.7s-2.2-.1-4.4-.1c-2.4 0-3.1.2-3.1 1.1 0 .7.3 1 1.4 1.2l3.4.8c3.3.8 3.7 2.2 3.7 4.8 0 3.9-2.4 5-7.6 5-2.7 0-5.6-.3-5.6-.3l.3-3.8zM92.332 8.487h5.3v16.2h-5.3v-16.2zM103.732 12.187h-4.3v-3.7h13.9v3.6h-4.3v12.5h-5.2l-.1-12.4zM115.132 8.487h5.3v16.2h-5.3v-16.2zM133.332 8.487h5.3l-4.5 16.2h-7.5l-4.5-16.2h5.3l2.9 13.3 3-13.3zM139.332 16.587c0-6.5 1.2-8.3 7.5-8.3 6.4 0 7.5 1.9 7.5 8.3s-1.2 8.3-7.5 8.3-7.5-1.8-7.5-8.3zm9.8 0c0-4.3-.1-4.6-2.3-4.6s-2.3.3-2.3 4.6.1 4.6 2.3 4.6 2.3-.2 2.3-4.6z"></path>
                <path d="M27.823.184c-4.7-.2-8.7-.3-13.4-.2-7.9.1-14.3 6.5-14.4 14.4 0 3.8 0 7 .1 10.8 0 .4.4.7.8.7.1 0 .3 0 .4-.1l3.9-2.1c2-1 3.4-2.9 3.6-5.1.5-2.6 1.3-5.1 1.9-7.2.7-2.4 1.1-4.8 1-7.3-.1-.8.5-1.6 1.3-1.7.6-.1 1.1.2 1.4.7 1.4 2.2 1.8 4.9 1.3 7.4-.1 1 .6 1.8 1.6 1.9h.4c2.5 0 4.9.1 7.3.4 1.1.1 1.9.9 2.1 1.9.5 3.5 0 7.1-1.5 10.3-1.2 2.2-2.8 2.9-5.4 3.9-2.9 1.1-7.2 2.7-7.2 2.7-.4.1-.6.5-.6.9.1.3.4.6.7.6h6.2c7.9-.1 14.4-6.5 14.4-14.4 0-4.6 0-8.4-.2-13-.3-2.9-2.7-5.3-5.7-5.5z" fill="#00b5e2"></path>
            </svg>